<svg
  version="1.1"
  xmlns="http://www.w3.org/2000/svg"
  viewBox="0 0 310 308.91198"
  width="310"
  height="308.91198"
>
  <g fill="#fff" transform="translate(-19.787,-40.662)">
    <g>
      <path
        d="m 174.787,349.574 c -85.468,0 -155,-69.531 -155,-155 0,-49.915 24.27,-97.069 64.92,-126.142 10.997,-7.861 26.282,-5.323 34.142,5.674 7.864,10.995 5.326,26.281 -5.67,34.142 -27.829,19.902 -44.446,52.174 -44.446,86.326 0,58.482 47.575,106.054 106.054,106.054 58.479,0 106.054,-47.571 106.054,-106.054 0,-34.152 -16.617,-66.424 -44.446,-86.326 -10.996,-7.86 -13.534,-23.146 -5.67,-34.142 7.86,-10.996 23.146,-13.535 34.142,-5.674 40.65,29.072 64.92,76.227 64.92,126.142 0,85.469 -69.532,155 -155,155 z"
      />
    </g>
    <g transform="matrix(1,0,0,0.90296391,1.2137986,40.662254)">
      <path
        d="m 174.787,187.631 c -13.516,0 -24.473,-10.957 -24.473,-24.477 V 24.47 C 150.314,10.957 161.271,0 174.787,0 188.303,0 199.26,10.957 199.26,24.47 v 138.685 c 0,13.519 -10.957,24.476 -24.473,24.476 z"
      />
    </g>
  </g>
</svg>
